<svg xmlns="http://www.w3.org/2000/svg" width="800" height="600" viewBox="0 0 800 600">
  <defs>
    <linearGradient id="bg" x1="0%" y1="0%" x2="100%" y2="100%">
      <stop offset="0%" style="stop-color:#0F172A"/>
      <stop offset="100%" style="stop-color:#1E293B"/>
    </linearGradient>
    <linearGradient id="accent" x1="0%" y1="0%" x2="100%" y2="0%">
      <stop offset="0%" style="stop-color:#2563EB"/>
      <stop offset="100%" style="stop-color:#60A5FA"/>
    </linearGradient>
  </defs>
  <rect width="800" height="600" fill="url(#bg)"/>
  <rect x="50" y="50" width="700" height="40" rx="6" fill="#1E293B"/>
  <circle cx="80" cy="70" r="8" fill="#EF4444" opacity="0.7"/>
  <circle cx="105" cy="70" r="8" fill="#F59E0B" opacity="0.7"/>
  <circle cx="130" cy="70" r="8" fill="#22C55E" opacity="0.7"/>
  <rect x="50" y="120" width="700" height="430" rx="6" fill="#0F172A" stroke="#1E293B" stroke-width="1"/>
  <rect x="80" y="160" width="250" height="12" rx="3" fill="url(#accent)" opacity="0.6"/>
  <rect x="80" y="190" width="180" height="10" rx="3" fill="#94A3B8" opacity="0.3"/>
  <rect x="80" y="220" width="350" height="10" rx="3" fill="#94A3B8" opacity="0.2"/>
  <rect x="80" y="250" width="300" height="10" rx="3" fill="#94A3B8" opacity="0.2"/>
  <rect x="80" y="280" width="280" height="10" rx="3" fill="#94A3B8" opacity="0.2"/>
  <rect x="80" y="330" width="200" height="30" rx="6" fill="url(#accent)" opacity="0.4"/>
  <rect x="300" y="330" width="150" height="30" rx="6" fill="#1E293B"/>
  <rect x="80" y="400" width="640" height="120" rx="8" fill="#1E293B" opacity="0.5"/>
  <rect x="100" y="420" width="100" height="8" rx="2" fill="#60A5FA" opacity="0.5"/>
  <rect x="100" y="440" width="580" height="6" rx="2" fill="#94A3B8" opacity="0.15"/>
  <rect x="100" y="456" width="550" height="6" rx="2" fill="#94A3B8" opacity="0.15"/>
  <rect x="100" y="472" width="400" height="6" rx="2" fill="#94A3B8" opacity="0.15"/>
  <rect x="100" y="492" width="80" height="16" rx="4" fill="#2563EB" opacity="0.3"/>
  <rect x="190" y="492" width="80" height="16" rx="4" fill="#2563EB" opacity="0.3"/>
</svg>
